<svg width="24" height="24" viewBox="0 0 24 24" fill="none" xmlns="http://www.w3.org/2000/svg">
<path fill-rule="evenodd" clip-rule="evenodd" d="M18.6667 4.5H19.5C20.8783 4.5 22 5.62167 22 7V19.5C22 20.8783 20.8783 22 19.5 22H4.5C3.12167 22 2 20.8783 2 19.5V7C2 5.62167 3.12167 4.5 4.5 4.5H5.33328V2.83328C5.33328 2.37338 5.70667 2 6.16672 2H7C7.46005 2 7.83328 2.37338 7.83328 2.83328V4.5H16.1667V2.83328C16.1667 2.37338 16.5399 2 17 2H17.8333C18.2933 2 18.6667 2.37338 18.6667 2.83328V4.5ZM19.5 20.3333C19.9591 20.3333 20.3333 19.9591 20.3333 19.5V10.3667H3.66672V19.5C3.66672 19.9591 4.04086 20.3333 4.5 20.3333H19.5Z" fill="#C42521"/>
</svg>
