<svg width="186" height="46" viewBox="0 0 186 46" fill="none" xmlns="http://www.w3.org/2000/svg">
<mask id="mask0_0_137" style="mask-type:luminance" maskUnits="userSpaceOnUse" x="0" y="0" width="50" height="46">
<path fill-rule="evenodd" clip-rule="evenodd" d="M38.7903 14.9061C38.5889 15.0764 38.2745 14.9921 38.0507 15.088C38.0251 15.0988 38.0006 15.1124 37.9775 15.1289C37.7146 15.3167 38.0017 15.6629 38.1477 15.8458C38.4038 16.1676 39.1235 16.8016 39.5619 16.688C39.8262 16.6194 39.9097 16.2172 39.9179 15.9861C39.9321 15.5744 39.8138 14.9267 39.4276 14.6893C39.1317 14.5074 38.9992 14.7298 38.7903 14.9061ZM40.9555 16.482C41.4554 16.8744 42.2191 16.2893 41.6369 15.8C41.0721 15.3258 40.4003 16.0462 40.9555 16.482ZM36.6766 17.4703C36.348 17.7102 36.2372 17.9767 36.2709 18.2299C36.3981 19.1857 38.5857 19.9565 38.8969 18.4345C39.1108 17.3867 37.3661 16.9667 36.6766 17.4703ZM23.2853 44.8122C23.0451 45.5449 21.3748 43.7333 22.2014 43.6658C22.5634 43.6361 23.4636 44.2684 23.2853 44.8122ZM23.7872 43.6498C23.4739 44.6063 21.2945 42.2421 22.373 42.154C22.8455 42.1152 24.0199 42.9402 23.7872 43.6498ZM21.821 43.5609C21.9627 44.0904 21.2366 45.2669 20.7634 44.9675C19.763 44.3349 20.4398 43.115 20.649 42.9744C20.8863 42.8146 21.5826 42.6709 21.821 43.5609ZM47.5794 31.6482C46.746 31.5653 46.8956 30.3329 47.6512 30.8508C47.9823 31.0778 48.1979 31.7094 47.5794 31.6482ZM49.0033 31.8559C47.9159 31.7482 48.1105 30.1398 49.0967 30.8159C49.5287 31.1121 49.81 31.936 49.0033 31.8559ZM47.4203 30.5994C47.0846 30.74 45.4593 30.3909 45.3176 30.0622C45.0178 29.3669 46.6384 29.6803 46.9361 29.7999C47.2736 29.9352 47.9851 30.3633 47.4203 30.5994ZM43.2778 27.8995C42.9144 28.3087 40.8813 28.0072 40.7147 27.5298C40.4877 26.8793 42.4454 26.7524 42.8856 26.8244C43.3488 26.9003 43.6682 27.4599 43.2778 27.8995ZM40.1086 29.7842C39.1665 29.5558 35.6897 29.0232 35.5224 27.8474C35.9395 27.7585 36.3988 28.0894 36.824 28.1775C37.6638 28.3513 38.5594 28.2992 39.4116 28.3706C41.2444 28.523 42.935 29.184 44.3996 30.2804C44.9652 30.7039 46.5116 32.2739 44.7805 31.6741C43.1723 31.1166 41.7914 30.1919 40.1086 29.7842ZM25.1528 10.5894C24.9862 9.2797 25.6562 8.30327 25.9027 7.09147C25.9898 6.66305 26.1432 4.29785 24.8185 4.67975C23.351 5.10292 24.3304 7.32299 24.5219 8.21339C24.9652 10.2782 24.0121 11.9841 23.8572 13.9041C25.8541 13.2634 25.3219 11.9152 25.1528 10.5894ZM17.1136 11.2546C17.3456 10.6027 16.109 10.0694 15.8486 10.5058C15.4823 11.1196 16.9275 11.7771 17.1136 11.2546ZM18.4181 13.2323C18.8412 12.5748 17.3481 12.2702 17.3729 12.1342C17.2859 12.6088 18.0582 13.7919 18.4181 13.2323ZM26.6097 1.50984C28.069 1.44304 26.5308 0.0556731 25.3525 0.00251472C23.6956 -0.0726764 25.4398 1.56369 26.6097 1.50984ZM26.0292 3.58931C27.8633 3.69842 25.4771 2.17117 25.7375 2.13515C24.831 2.26035 24.4679 3.49663 26.0292 3.58931ZM4.15498 39.3873C4.16776 39.6769 3.91376 39.7549 3.85515 39.9766C3.8484 40.0021 3.84414 40.0294 3.84343 40.0591C3.83348 40.4004 4.27647 40.6162 4.50738 40.7337C4.91236 40.9401 5.8399 41.2321 6.01291 40.8761C6.117 40.6617 5.85198 40.1885 5.67543 39.9371C5.36139 39.4905 4.78305 38.8624 4.36599 38.8151C4.04627 38.7795 4.14148 39.0876 4.15498 39.3873ZM2.74003 42.5048C2.85869 42.6174 2.9983 42.6894 3.12938 42.6821C3.42388 42.6656 3.61571 42.2855 3.65763 41.9704C3.68214 41.784 3.72087 41.7168 3.85089 41.6339C3.94858 41.5717 4.25302 41.5175 4.21714 41.308C4.17238 41.0443 3.89529 41.0415 3.77877 41.0761C3.54218 41.1461 3.47184 41.4143 3.37202 41.6462C3.2864 41.8448 3.10416 41.7826 2.9237 41.7102C2.71659 41.6269 2.51232 41.5308 2.4601 41.8015C2.42635 41.9767 2.49385 42.1767 2.60611 42.3428C2.52191 42.2659 2.41747 42.2026 2.28887 42.1655C1.57909 41.9613 1.74215 43.0891 2.4157 43.2574C2.84767 43.3651 2.96881 42.8734 2.74003 42.5048ZM6.68468 39.9119C7.29108 40.0633 7.2893 39.0306 6.5575 38.82C5.84807 38.6158 6.01113 39.7433 6.68468 39.9119ZM9.60657 39.6954C9.36252 40.12 9.0801 40.4155 8.73231 40.7246C8.62396 40.8212 7.80086 41.457 8.17387 41.7014C8.69892 42.0459 9.53659 40.3798 9.77531 40.107C10.0453 39.7989 10.3743 39.4188 10.4815 38.9498C10.0897 38.8116 9.76643 39.417 9.60657 39.6954ZM8.76322 42.0267C8.49714 41.8798 8.07688 42.182 8.4538 42.5285C8.89714 42.936 8.68684 41.9844 8.76322 42.0267ZM10.9501 41.8717C11.1938 42.3428 11.4595 42.5929 11.71 42.6814C12.6556 43.015 13.3828 41.0439 11.8684 39.9605C10.8261 39.2149 10.4389 40.8831 10.9501 41.8717ZM10.8581 16.1704C10.7323 17.0321 9.52309 16.7754 9.68472 15.8794C9.71421 15.7168 9.77389 15.5989 9.85027 15.515C9.67939 15.6 9.46838 15.6077 9.27548 15.4859C8.97743 15.2978 9.06447 15.0558 9.13729 14.8043C9.20052 14.5851 9.25275 14.3588 9.03001 14.1552C8.77032 13.9178 8.47334 13.7055 8.37742 13.3474C8.33017 13.1711 8.30993 12.7885 8.59199 12.8392C8.8165 12.8791 8.9007 13.3243 8.97636 13.4866C9.07725 13.702 9.15328 13.7842 9.35754 13.8982C9.70284 14.0909 10.1313 14.5197 10.1739 14.9351C10.1931 15.1201 10.1266 15.2824 10.0144 15.3989C10.3949 15.239 10.9387 15.6178 10.8581 16.1704ZM44.8338 33.3654C45.4352 33.4003 47.1777 33.273 46.6231 34.3219C46.1016 35.3081 45.0792 34.5925 44.7297 34.4652C43.6884 34.0868 43.968 35.4294 43.0383 35.6966C42.563 35.8334 42.5204 35.449 42.0294 36.0268C41.8806 36.202 41.7818 36.4321 41.5541 36.5384C41.3037 36.6552 41.039 36.48 40.904 36.4066C40.3804 36.1222 40.4671 35.6235 40.7967 34.9104C40.9086 34.6684 41.2451 34.226 41.1449 34.0466C41.0397 33.8578 40.8081 34.0921 40.5772 34.1529C40.3498 34.2127 40.0472 34.1589 40.0287 33.9627C39.9889 33.5385 40.8483 33.2083 41.0774 32.8663C41.3641 32.4382 40.7076 32.5907 40.4806 32.6075C40.1349 32.6327 39.5203 32.5033 40.2397 32.0763C40.677 31.8168 41.071 31.8412 41.3793 31.9283C41.5346 31.9724 41.6525 32.0794 41.8113 32.1133C42.0302 32.1595 42.0667 32.1021 42.3698 31.9668C42.9914 31.6888 43.1186 32.3365 43.2703 32.6155C43.5243 33.0824 44.1918 33.3269 44.8288 33.365C44.8306 33.365 44.832 33.365 44.8338 33.3654ZM3.19333 19.8047C2.44269 20.0408 0.51087 20.9242 0.0593538 19.7652C-0.364809 18.6755 1.60467 18.8454 2.15388 18.801C3.78907 18.6688 2.03771 17.6242 2.85798 16.9793C3.27752 16.6498 3.73437 16.9653 3.70559 16.2445C3.69706 16.0263 3.57095 15.7822 3.72833 15.5888C3.90204 15.3758 4.40116 15.4111 4.63917 15.4153C5.56104 15.4307 5.9852 15.9032 6.3479 16.6698C6.47117 16.9303 6.54009 17.4647 6.84844 17.5763C7.17314 17.6941 7.20014 17.3874 7.40973 17.2321C7.61613 17.0793 8.03177 16.9919 8.26125 17.1545C8.75682 17.5063 8.08683 18.1746 8.17671 18.574C8.28932 19.0734 8.90674 18.6499 9.1586 18.5345C9.54156 18.3593 10.4076 18.1995 10.0055 18.8905C9.76146 19.3099 9.26838 19.4634 8.81011 19.5242C8.57991 19.5547 8.32662 19.5137 8.10246 19.5547C7.79375 19.6117 7.81151 19.6778 7.59517 19.9299C7.15147 20.4475 6.31558 19.9401 5.84061 19.7645C5.04593 19.4704 3.99583 19.5536 3.19972 19.803C3.19759 19.8033 3.19546 19.804 3.19333 19.8047ZM38.7523 9.7382C38.2152 9.58921 38.2869 9.61894 37.8457 9.91516C37.4248 10.1974 35.9217 11.2655 37.1921 11.4333C37.6614 11.4952 37.9438 11.127 38.3395 10.9738C38.682 10.8416 39.4767 10.9598 39.7335 10.7227C40.3548 10.1474 39.1765 9.85605 38.7523 9.7382ZM36.1896 12.3702C36.4738 11.7918 35.8567 11.4547 35.9139 10.9178C35.9768 10.3271 38.5601 8.56836 36.5203 8.34663C34.932 8.17387 34.7888 10.7241 34.0297 11.5872C33.6453 12.0237 32.0037 13.46 32.1042 14.1112C32.2492 15.0523 33.6886 13.5897 34.072 13.4114C34.6421 13.1459 35.883 12.9934 36.1896 12.3702ZM28.5866 12.4804C28.8893 12.7458 29.3387 12.8291 29.9191 12.5738C31.4112 11.9173 31.0389 8.08819 28.8726 9.74764C27.9649 10.4429 27.9244 11.8988 28.5866 12.4804ZM13.4056 34.6586C13.3505 34.2676 12.5682 33.8812 12.1135 33.9431C11.6588 34.005 11.3345 34.3726 11.3895 34.7639C11.4443 35.1553 11.8578 35.4221 12.3125 35.3602C12.7672 35.2983 13.4603 35.05 13.4056 34.6586ZM9.9508 34.5761C8.70673 33.9648 6.56958 34.3932 6.18733 35.1469C5.80545 35.9009 6.50421 37.0074 7.74828 37.6187C8.99271 38.2297 10.311 38.1143 10.6929 37.3606C11.0752 36.607 11.1949 35.1874 9.9508 34.5761ZM37.7079 26.0166C38.2155 26.1043 38.3726 26.0746 38.737 25.6535C38.9228 25.4388 38.8511 25.1632 39.1505 24.9394C39.46 24.7082 39.8028 24.7876 40.1431 24.703C40.8056 24.5383 41.2241 24.3008 41.492 23.6101C41.9392 22.4549 41.3769 21.0029 40.1136 20.671C38.5409 20.2576 37.8386 22.03 36.9505 22.925C36.3679 23.5118 35.6869 24.0885 35.0183 24.5771C34.7515 24.7722 32.6272 26.2925 34.2155 26.2446C34.9018 26.2239 35.2613 25.8851 35.8922 25.7616C36.0688 25.727 36.2464 25.7252 36.424 25.7431C36.8571 25.7864 37.2894 25.9445 37.7079 26.0166ZM29.3412 39.19C29.0644 39.0869 28.8005 38.9662 28.5713 38.8246C28.0228 38.4853 27.5504 38.0475 26.8662 37.9751C26.2146 37.9062 26.2484 38.5882 26.2086 39.0701C26.1283 40.0465 26.1333 41.1863 26.4075 42.1393C26.8733 43.7585 27.9713 44.4359 29.6957 44.0516C30.5916 43.8519 32.1728 43.2843 32.3238 42.2627C32.4897 41.1366 31.8915 39.8217 30.6801 39.5646C30.2598 39.4751 29.7838 39.3551 29.3412 39.19ZM6.73299 20.9543C4.95961 21.4519 3.54005 24.4729 4.6342 26.0564C5.6097 27.4686 7.16639 26.8947 7.8577 25.6658C8.19127 25.073 8.38026 24.1095 8.98098 23.7157C9.4158 23.4307 10.4378 23.7318 10.7114 23.2792C11.4141 22.1084 7.48753 20.7427 6.73299 20.9543ZM21.4462 16.0007C21.4604 16.5865 21.3815 17.2419 22.1421 17.2566C21.5975 17.2461 24.9336 8.48513 20.622 9.19507C17.1914 9.76093 21.1051 14.0968 21.4114 15.622C21.4352 15.7392 21.443 15.8682 21.4462 16.0007ZM19.0977 18.4838C20.4174 18.1897 21.4785 20.6832 22.9094 19.2357C23.4441 18.6947 23.4686 16.4019 24.6345 16.7796C25.1169 16.9359 24.8008 17.6756 25.4818 17.5256C25.9706 17.4182 26.0324 16.5939 26.1287 16.2393C26.3059 15.5867 26.1201 13.2183 26.8853 12.9865C28.3919 12.5301 27.1734 15.3177 27.2207 15.8374C27.9788 15.9826 28.5987 15.5006 29.3184 15.4205C30.0069 15.344 30.8115 15.5031 31.468 15.6961C32.7387 16.07 33.959 16.8425 34.5494 18.0484C35.2482 19.476 34.7 20.714 33.7938 21.8905C33.089 22.8061 31.3398 24.128 31.6446 25.4171C31.8659 25.4231 32.0446 25.5728 32.2737 25.5658C32.6382 26.1844 31.7977 26.2278 31.9227 26.9244C32.0254 27.4969 32.9167 27.9715 33.1668 28.5188C33.5437 29.3453 33.3021 29.5887 34.365 29.8317C34.8908 29.952 36.0045 29.6576 36.3175 30.2077C36.7299 30.9327 35.6368 31.1708 35.7373 31.8444C36.894 32.3417 37.9129 33.834 38.1633 35.0189C38.5115 36.6664 37.5285 37.0854 36.3107 37.8104C35.4816 38.3038 35.8151 38.0394 35.7643 38.9994C35.694 40.3326 34.8894 40.9544 33.6624 39.736C32.8741 38.9529 32.6162 36.9889 31.5092 36.5374C29.6879 35.7942 31.5526 38.0618 31.0051 38.6753C30.3 39.4663 29.7632 37.4033 29.4829 37.0599C28.868 36.3069 28.0733 36.2338 27.2079 35.7939C26.6416 35.506 25.8629 34.5324 25.4452 35.6921C25.004 36.9175 26.1923 36.7546 24.7151 37.2026C23.8732 37.4579 23.859 37.4746 23.5311 38.2024C23.3833 38.5301 23.561 38.8326 23.335 39.2149C23.1457 39.5352 22.7013 39.6902 22.4583 39.9731C22.0668 40.4291 21.9116 40.9845 21.5794 41.4783C20.93 42.4432 19.9879 43.0196 18.7904 42.6712C17.0134 42.154 17.9079 40.3032 18.384 39.168C18.6284 38.5847 19.0568 37.83 18.5197 37.2498C17.9651 36.6507 17.45 36.9287 17.114 37.5121C16.6841 38.2584 17.1712 39.1428 16.3989 39.815C15.7374 40.391 14.4663 40.4207 14.023 39.5747C13.4095 38.4035 14.753 37.127 15.4351 36.3177C15.7491 35.9449 16.3569 35.5539 16.1211 34.9958C16.0035 34.7177 14.9601 34.3002 14.8333 34.6744C15.0869 33.9267 15.7012 32.8918 14.9093 32.4711C14.6585 32.3382 14.0656 32.6302 13.7185 32.5043C13.3644 32.376 13.2738 31.8636 12.877 31.7685C12.1988 31.6059 11.2563 32.2875 10.5153 32.3204C9.65097 32.3581 8.12875 32.2976 7.48185 31.6545C5.4772 29.6604 10.5139 27.9282 11.7469 27.3934C12.3547 27.1301 13.6592 26.6296 13.0794 25.9043C12.6183 25.3276 11.1746 25.9711 12.1192 24.6208C12.4933 24.0861 14.2955 24.0049 14.3342 23.4468C14.3818 22.7606 13.2173 22.8837 13.2624 22.0486C13.3075 21.2113 14.6152 21.1798 14.013 20.2482C13.7761 19.8813 11.8816 19.3382 12.8333 18.4681C13.4283 17.9242 14.1885 19.2448 14.9097 19.2133C15.547 19.1854 14.2432 16.8506 14.137 16.6894C13.4901 15.7077 12.7576 14.7889 12.8492 13.5257C12.9373 12.3157 13.6603 12.117 14.601 12.8906C16.26 14.2549 15.6987 19.0108 18.6213 18.5723C18.811 18.544 18.9666 18.5128 19.0977 18.4838Z" fill="white"/>
</mask>
<g mask="url(#mask0_0_137)">
<path fill-rule="evenodd" clip-rule="evenodd" d="M38.7903 14.9061C38.5889 15.0764 38.2745 14.9921 38.0507 15.088C38.0251 15.0988 38.0006 15.1124 37.9775 15.1289C37.7146 15.3167 38.0017 15.6629 38.1477 15.8458C38.4038 16.1676 39.1235 16.8016 39.5619 16.688C39.8262 16.6194 39.9097 16.2172 39.9179 15.9861C39.9321 15.5744 39.8138 14.9267 39.4276 14.6893C39.1317 14.5074 38.9992 14.7298 38.7903 14.9061ZM40.9555 16.482C41.4554 16.8744 42.2191 16.2893 41.6369 15.8C41.0721 15.3258 40.4003 16.0462 40.9555 16.482ZM36.6766 17.4703C36.348 17.7102 36.2372 17.9767 36.2709 18.2299C36.3981 19.1857 38.5857 19.9565 38.8969 18.4345C39.1108 17.3867 37.3661 16.9667 36.6766 17.4703ZM23.2853 44.8122C23.0451 45.5449 21.3748 43.7333 22.2014 43.6658C22.5634 43.6361 23.4636 44.2684 23.2853 44.8122ZM23.7872 43.6498C23.4739 44.6063 21.2945 42.2421 22.373 42.154C22.8455 42.1152 24.0199 42.9402 23.7872 43.6498ZM21.821 43.5609C21.9627 44.0904 21.2366 45.2669 20.7634 44.9675C19.763 44.3349 20.4398 43.115 20.649 42.9744C20.8863 42.8146 21.5826 42.6709 21.821 43.5609ZM47.5794 31.6482C46.746 31.5653 46.8956 30.3329 47.6512 30.8508C47.9823 31.0778 48.1979 31.7094 47.5794 31.6482ZM49.0033 31.8559C47.9159 31.7482 48.1105 30.1398 49.0967 30.8159C49.5287 31.1121 49.81 31.936 49.0033 31.8559ZM47.4203 30.5994C47.0846 30.74 45.4593 30.3909 45.3176 30.0622C45.0178 29.3669 46.6384 29.6803 46.9361 29.7999C47.2736 29.9352 47.9851 30.3633 47.4203 30.5994ZM43.2778 27.8995C42.9144 28.3087 40.8813 28.0072 40.7147 27.5298C40.4877 26.8793 42.4454 26.7524 42.8856 26.8244C43.3488 26.9003 43.6682 27.4599 43.2778 27.8995ZM40.1086 29.7842C39.1665 29.5558 35.6897 29.0232 35.5224 27.8474C35.9395 27.7585 36.3988 28.0894 36.824 28.1775C37.6638 28.3513 38.5594 28.2992 39.4116 28.3706C41.2444 28.523 42.935 29.184 44.3996 30.2804C44.9652 30.7039 46.5116 32.2739 44.7805 31.6741C43.1723 31.1166 41.7914 30.1919 40.1086 29.7842ZM25.1528 10.5894C24.9862 9.2797 25.6562 8.30327 25.9027 7.09147C25.9898 6.66305 26.1432 4.29785 24.8185 4.67975C23.351 5.10292 24.3304 7.32299 24.5219 8.21339C24.9652 10.2782 24.0121 11.9841 23.8572 13.9041C25.8541 13.2634 25.3219 11.9152 25.1528 10.5894ZM17.1136 11.2546C17.3456 10.6027 16.109 10.0694 15.8486 10.5058C15.4823 11.1196 16.9275 11.7771 17.1136 11.2546ZM18.4181 13.2323C18.8412 12.5748 17.3481 12.2702 17.3729 12.1342C17.2859 12.6088 18.0582 13.7919 18.4181 13.2323ZM26.6097 1.50984C28.069 1.44304 26.5308 0.0556731 25.3525 0.00251472C23.6956 -0.0726764 25.4398 1.56369 26.6097 1.50984ZM26.0292 3.58931C27.8633 3.69842 25.4771 2.17117 25.7375 2.13515C24.831 2.26035 24.4679 3.49663 26.0292 3.58931ZM4.15498 39.3873C4.16776 39.6769 3.91376 39.7549 3.85515 39.9766C3.8484 40.0021 3.84414 40.0294 3.84343 40.0591C3.83348 40.4004 4.27647 40.6162 4.50738 40.7337C4.91236 40.9401 5.8399 41.2321 6.01291 40.8761C6.117 40.6617 5.85198 40.1885 5.67543 39.9371C5.36139 39.4905 4.78305 38.8624 4.36599 38.8151C4.04627 38.7795 4.14148 39.0876 4.15498 39.3873ZM2.74003 42.5048C2.85869 42.6174 2.9983 42.6894 3.12938 42.6821C3.42388 42.6656 3.61571 42.2855 3.65763 41.9704C3.68214 41.784 3.72087 41.7168 3.85089 41.6339C3.94858 41.5717 4.25302 41.5175 4.21714 41.308C4.17238 41.0443 3.89529 41.0415 3.77877 41.0761C3.54218 41.1461 3.47184 41.4143 3.37202 41.6462C3.2864 41.8448 3.10416 41.7826 2.9237 41.7102C2.71659 41.6269 2.51232 41.5308 2.4601 41.8015C2.42635 41.9767 2.49385 42.1767 2.60611 42.3428C2.52191 42.2659 2.41747 42.2026 2.28887 42.1655C1.57909 41.9613 1.74215 43.0891 2.4157 43.2574C2.84767 43.3651 2.96881 42.8734 2.74003 42.5048ZM6.68468 39.9119C7.29108 40.0633 7.2893 39.0306 6.5575 38.82C5.84807 38.6158 6.01113 39.7433 6.68468 39.9119ZM9.60657 39.6954C9.36252 40.12 9.0801 40.4155 8.73231 40.7246C8.62396 40.8212 7.80086 41.457 8.17387 41.7014C8.69892 42.0459 9.53659 40.3798 9.77531 40.107C10.0453 39.7989 10.3743 39.4188 10.4815 38.9498C10.0897 38.8116 9.76643 39.417 9.60657 39.6954ZM8.76322 42.0267C8.49714 41.8798 8.07688 42.182 8.4538 42.5285C8.89714 42.936 8.68684 41.9844 8.76322 42.0267ZM10.9501 41.8717C11.1938 42.3428 11.4595 42.5929 11.71 42.6814C12.6556 43.015 13.3828 41.0439 11.8684 39.9605C10.8261 39.2149 10.4389 40.8831 10.9501 41.8717ZM10.8581 16.1704C10.7323 17.0321 9.52309 16.7754 9.68472 15.8794C9.71421 15.7168 9.77389 15.5989 9.85027 15.515C9.67939 15.6 9.46838 15.6077 9.27548 15.4859C8.97743 15.2978 9.06447 15.0558 9.13729 14.8043C9.20052 14.5851 9.25275 14.3588 9.03001 14.1552C8.77032 13.9178 8.47334 13.7055 8.37742 13.3474C8.33017 13.1711 8.30993 12.7885 8.59199 12.8392C8.8165 12.8791 8.9007 13.3243 8.97636 13.4866C9.07725 13.702 9.15328 13.7842 9.35754 13.8982C9.70284 14.0909 10.1313 14.5197 10.1739 14.9351C10.1931 15.1201 10.1266 15.2824 10.0144 15.3989C10.3949 15.239 10.9387 15.6178 10.8581 16.1704ZM44.8338 33.3654C45.4352 33.4003 47.1777 33.273 46.6231 34.3219C46.1016 35.3081 45.0792 34.5925 44.7297 34.4652C43.6884 34.0868 43.968 35.4294 43.0383 35.6966C42.563 35.8334 42.5204 35.449 42.0294 36.0268C41.8806 36.202 41.7818 36.4321 41.5541 36.5384C41.3037 36.6552 41.039 36.48 40.904 36.4066C40.3804 36.1222 40.4671 35.6235 40.7967 34.9104C40.9086 34.6684 41.2451 34.226 41.1449 34.0466C41.0397 33.8578 40.8081 34.0921 40.5772 34.1529C40.3498 34.2127 40.0472 34.1589 40.0287 33.9627C39.9889 33.5385 40.8483 33.2083 41.0774 32.8663C41.3641 32.4382 40.7076 32.5907 40.4806 32.6075C40.1349 32.6327 39.5203 32.5033 40.2397 32.0763C40.677 31.8168 41.071 31.8412 41.3793 31.9283C41.5346 31.9724 41.6525 32.0794 41.8113 32.1133C42.0302 32.1595 42.0667 32.1021 42.3698 31.9668C42.9914 31.6888 43.1186 32.3365 43.2703 32.6155C43.5243 33.0824 44.1918 33.3269 44.8288 33.365C44.8306 33.365 44.832 33.365 44.8338 33.3654ZM3.19333 19.8047C2.44269 20.0408 0.51087 20.9242 0.0593538 19.7652C-0.364809 18.6755 1.60467 18.8454 2.15388 18.801C3.78907 18.6688 2.03771 17.6242 2.85798 16.9793C3.27752 16.6498 3.73437 16.9653 3.70559 16.2445C3.69706 16.0263 3.57095 15.7822 3.72833 15.5888C3.90204 15.3758 4.40116 15.4111 4.63917 15.4153C5.56104 15.4307 5.9852 15.9032 6.3479 16.6698C6.47117 16.9303 6.54009 17.4647 6.84844 17.5763C7.17314 17.6941 7.20014 17.3874 7.40973 17.2321C7.61613 17.0793 8.03177 16.9919 8.26125 17.1545C8.75682 17.5063 8.08683 18.1746 8.17671 18.574C8.28932 19.0734 8.90674 18.6499 9.1586 18.5345C9.54156 18.3593 10.4076 18.1995 10.0055 18.8905C9.76146 19.3099 9.26838 19.4634 8.81011 19.5242C8.57991 19.5547 8.32662 19.5137 8.10246 19.5547C7.79375 19.6117 7.81151 19.6778 7.59517 19.9299C7.15147 20.4475 6.31558 19.9401 5.84061 19.7645C5.04593 19.4704 3.99583 19.5536 3.19972 19.803C3.19759 19.8033 3.19546 19.804 3.19333 19.8047ZM38.7523 9.7382C38.2152 9.58921 38.2869 9.61894 37.8457 9.91516C37.4248 10.1974 35.9217 11.2655 37.1921 11.4333C37.6614 11.4952 37.9438 11.127 38.3395 10.9738C38.682 10.8416 39.4767 10.9598 39.7335 10.7227C40.3548 10.1474 39.1765 9.85605 38.7523 9.7382ZM36.1896 12.3702C36.4738 11.7918 35.8567 11.4547 35.9139 10.9178C35.9768 10.3271 38.5601 8.56836 36.5203 8.34663C34.932 8.17387 34.7888 10.7241 34.0297 11.5872C33.6453 12.0237 32.0037 13.46 32.1042 14.1112C32.2492 15.0523 33.6886 13.5897 34.072 13.4114C34.6421 13.1459 35.883 12.9934 36.1896 12.3702ZM28.5866 12.4804C28.8893 12.7458 29.3387 12.8291 29.9191 12.5738C31.4112 11.9173 31.0389 8.08819 28.8726 9.74764C27.9649 10.4429 27.9244 11.8988 28.5866 12.4804ZM13.4056 34.6586C13.3505 34.2676 12.5682 33.8812 12.1135 33.9431C11.6588 34.005 11.3345 34.3726 11.3895 34.7639C11.4443 35.1553 11.8578 35.4221 12.3125 35.3602C12.7672 35.2983 13.4603 35.05 13.4056 34.6586ZM9.9508 34.5761C8.70673 33.9648 6.56958 34.3932 6.18733 35.1469C5.80545 35.9009 6.50421 37.0074 7.74828 37.6187C8.99271 38.2297 10.311 38.1143 10.6929 37.3606C11.0752 36.607 11.1949 35.1874 9.9508 34.5761ZM37.7079 26.0166C38.2155 26.1043 38.3726 26.0746 38.737 25.6535C38.9228 25.4388 38.8511 25.1632 39.1505 24.9394C39.46 24.7082 39.8028 24.7876 40.1431 24.703C40.8056 24.5383 41.2241 24.3008 41.492 23.6101C41.9392 22.4549 41.3769 21.0029 40.1136 20.671C38.5409 20.2576 37.8386 22.03 36.9505 22.925C36.3679 23.5118 35.6869 24.0885 35.0183 24.5771C34.7515 24.7722 32.6272 26.2925 34.2155 26.2446C34.9018 26.2239 35.2613 25.8851 35.8922 25.7616C36.0688 25.727 36.2464 25.7252 36.424 25.7431C36.8571 25.7864 37.2894 25.9445 37.7079 26.0166ZM29.3412 39.19C29.0644 39.0869 28.8005 38.9662 28.5713 38.8246C28.0228 38.4853 27.5504 38.0475 26.8662 37.9751C26.2146 37.9062 26.2484 38.5882 26.2086 39.0701C26.1283 40.0465 26.1333 41.1863 26.4075 42.1393C26.8733 43.7585 27.9713 44.4359 29.6957 44.0516C30.5916 43.8519 32.1728 43.2843 32.3238 42.2627C32.4897 41.1366 31.8915 39.8217 30.6801 39.5646C30.2598 39.4751 29.7838 39.3551 29.3412 39.19ZM6.73299 20.9543C4.95961 21.4519 3.54005 24.4729 4.6342 26.0564C5.6097 27.4686 7.16639 26.8947 7.8577 25.6658C8.19127 25.073 8.38026 24.1095 8.98098 23.7157C9.4158 23.4307 10.4378 23.7318 10.7114 23.2792C11.4141 22.1084 7.48753 20.7427 6.73299 20.9543ZM21.4462 16.0007C21.4604 16.5865 21.3815 17.2419 22.1421 17.2566C21.5975 17.2461 24.9336 8.48513 20.622 9.19507C17.1914 9.76093 21.1051 14.0968 21.4114 15.622C21.4352 15.7392 21.443 15.8682 21.4462 16.0007ZM19.0977 18.4838C20.4174 18.1897 21.4785 20.6832 22.9094 19.2357C23.4441 18.6947 23.4686 16.4019 24.6345 16.7796C25.1169 16.9359 24.8008 17.6756 25.4818 17.5256C25.9706 17.4182 26.0324 16.5939 26.1287 16.2393C26.3059 15.5867 26.1201 13.2183 26.8853 12.9865C28.3919 12.5301 27.1734 15.3177 27.2207 15.8374C27.9788 15.9826 28.5987 15.5006 29.3184 15.4205C30.0069 15.344 30.8115 15.5031 31.468 15.6961C32.7387 16.07 33.959 16.8425 34.5494 18.0484C35.2482 19.476 34.7 20.714 33.7938 21.8905C33.089 22.8061 31.3398 24.128 31.6446 25.4171C31.8659 25.4231 32.0446 25.5728 32.2737 25.5658C32.6382 26.1844 31.7977 26.2278 31.9227 26.9244C32.0254 27.4969 32.9167 27.9715 33.1668 28.5188C33.5437 29.3453 33.3021 29.5887 34.365 29.8317C34.8908 29.952 36.0045 29.6576 36.3175 30.2077C36.7299 30.9327 35.6368 31.1708 35.7373 31.8444C36.894 32.3417 37.9129 33.834 38.1633 35.0189C38.5115 36.6664 37.5285 37.0854 36.3107 37.8104C35.4816 38.3038 35.8151 38.0394 35.7643 38.9994C35.694 40.3326 34.8894 40.9544 33.6624 39.736C32.8741 38.9529 32.6162 36.9889 31.5092 36.5374C29.6879 35.7942 31.5526 38.0618 31.0051 38.6753C30.3 39.4663 29.7632 37.4033 29.4829 37.0599C28.868 36.3069 28.0733 36.2338 27.2079 35.7939C26.6416 35.506 25.8629 34.5324 25.4452 35.6921C25.004 36.9175 26.1923 36.7546 24.7151 37.2026C23.8732 37.4579 23.859 37.4746 23.5311 38.2024C23.3833 38.5301 23.561 38.8326 23.335 39.2149C23.1457 39.5352 22.7013 39.6902 22.4583 39.9731C22.0668 40.4291 21.9116 40.9845 21.5794 41.4783C20.93 42.4432 19.9879 43.0196 18.7904 42.6712C17.0134 42.154 17.9079 40.3032 18.384 39.168C18.6284 38.5847 19.0568 37.83 18.5197 37.2498C17.9651 36.6507 17.45 36.9287 17.114 37.5121C16.6841 38.2584 17.1712 39.1428 16.3989 39.815C15.7374 40.391 14.4663 40.4207 14.023 39.5747C13.4095 38.4035 14.753 37.127 15.4351 36.3177C15.7491 35.9449 16.3569 35.5539 16.1211 34.9958C16.0035 34.7177 14.9601 34.3002 14.8333 34.6744C15.0869 33.9267 15.7012 32.8918 14.9093 32.4711C14.6585 32.3382 14.0656 32.6302 13.7185 32.5043C13.3644 32.376 13.2738 31.8636 12.877 31.7685C12.1988 31.6059 11.2563 32.2875 10.5153 32.3204C9.65097 32.3581 8.12875 32.2976 7.48185 31.6545C5.4772 29.6604 10.5139 27.9282 11.7469 27.3934C12.3547 27.1301 13.6592 26.6296 13.0794 25.9043C12.6183 25.3276 11.1746 25.9711 12.1192 24.6208C12.4933 24.0861 14.2955 24.0049 14.3342 23.4468C14.3818 22.7606 13.2173 22.8837 13.2624 22.0486C13.3075 21.2113 14.6152 21.1798 14.013 20.2482C13.7761 19.8813 11.8816 19.3382 12.8333 18.4681C13.4283 17.9242 14.1885 19.2448 14.9097 19.2133C15.547 19.1854 14.2432 16.8506 14.137 16.6894C13.4901 15.7077 12.7576 14.7889 12.8492 13.5257C12.9373 12.3157 13.6603 12.117 14.601 12.8906C16.26 14.2549 15.6987 19.0108 18.6213 18.5723C18.811 18.544 18.9666 18.5128 19.0977 18.4838Z" fill="url(#paint0_linear_0_137)"/>
</g>
<path fill-rule="evenodd" clip-rule="evenodd" d="M19.8015 29.9H25.5066C27.5071 29.9 28.9865 29.0764 29.9449 27.4293C30.6516 26.2074 31.005 24.716 31.005 22.9551C31.005 22.2603 30.9212 21.5296 30.7535 20.7629C30.5858 19.9962 30.2713 19.2835 29.8101 18.6246C29.2351 17.81 28.4834 17.25 27.555 16.9445C27.01 16.7648 26.3272 16.669 25.5066 16.657H19.8015V29.9ZM25.0394 18.957C26.2972 18.957 27.1388 19.3164 27.564 20.0352C27.9833 20.7599 28.1929 21.7961 28.1929 23.1438C28.1929 24.1201 28.0522 24.9616 27.7707 25.6684C27.2556 26.9561 26.3451 27.6 25.0394 27.6H22.4878V18.957H25.0394Z" fill="white"/>
<path d="M37.8062 22.4699C36.776 22.4699 36.0842 22.8053 35.7308 23.4762C35.5332 23.8535 35.4343 24.4345 35.4343 25.2191V29.9H32.8558V20.107H35.2996V21.8141C35.6949 21.1612 36.0393 20.715 36.3328 20.4754C36.812 20.0741 37.4349 19.8734 38.2015 19.8734C38.2495 19.8734 38.2899 19.8749 38.3228 19.8779C38.3558 19.8809 38.4291 19.8854 38.5429 19.8914V22.5148C38.3812 22.4969 38.2375 22.4849 38.1117 22.4789C37.9859 22.4729 37.8841 22.4699 37.8062 22.4699Z" fill="white"/>
<path fill-rule="evenodd" clip-rule="evenodd" d="M47.5183 28.7949C48.0573 28.196 48.3598 27.606 48.4257 27.025H45.8113C45.6735 27.3125 45.5148 27.5371 45.3351 27.6988C45.0057 27.9983 44.5774 28.148 44.0503 28.148C43.5532 28.148 43.1279 28.0253 42.7745 27.7797C42.1935 27.3844 41.8851 26.6956 41.8491 25.7133H48.5515C48.5635 24.8688 48.5365 24.2219 48.4706 23.7727C48.3568 23.006 48.1083 22.3322 47.7249 21.7512C47.2997 21.0923 46.7606 20.6102 46.1077 20.3047C45.4549 19.9992 44.7212 19.8465 43.9066 19.8465C42.535 19.8465 41.4194 20.2987 40.5599 21.2031C39.7004 22.1076 39.2706 23.4073 39.2706 25.1023C39.2706 26.9112 39.7468 28.2169 40.6991 29.0195C41.6515 29.8221 42.7506 30.2234 43.9964 30.2234C45.5058 30.2234 46.6797 29.7473 47.5183 28.7949ZM45.2767 22.4834C45.645 22.8338 45.8502 23.3474 45.8921 24.0242H41.912C41.9959 23.3893 42.201 22.8862 42.5275 22.5148C42.8539 22.1435 43.3136 21.9578 43.9066 21.9578C44.4516 21.9578 44.9083 22.133 45.2767 22.4834Z" fill="white"/>
<path fill-rule="evenodd" clip-rule="evenodd" d="M54.1308 19.8734C52.4837 19.8734 51.3217 20.3047 50.6449 21.1672C50.2196 21.7182 49.9801 22.422 49.9261 23.2785H52.3969C52.4567 22.9012 52.5765 22.6017 52.7562 22.3801C53.0078 22.0806 53.436 21.9309 54.041 21.9309C54.5801 21.9309 54.9888 22.0072 55.2674 22.16C55.5459 22.3127 55.6851 22.5897 55.6851 22.991C55.6851 23.3204 55.5024 23.563 55.1371 23.7187C54.9334 23.8086 54.595 23.8835 54.1219 23.9434L53.2504 24.0512C52.2621 24.177 51.5134 24.3866 51.0043 24.6801C50.0759 25.2191 49.6117 26.0906 49.6117 27.2945C49.6117 28.2229 49.9007 28.9402 50.4787 29.4463C51.0567 29.9524 51.7889 30.2055 52.6754 30.2055C53.3702 30.2055 53.9931 30.0467 54.5441 29.7293C55.0053 29.4598 55.4126 29.1333 55.766 28.75C55.784 28.9716 55.8079 29.1693 55.8379 29.343C55.8678 29.5167 55.9217 29.7023 55.9996 29.9H58.7847V29.5227C58.617 29.4448 58.4913 29.346 58.4074 29.2262C58.3235 29.1064 58.2726 28.8788 58.2547 28.5434C58.2427 28.1001 58.2367 27.7228 58.2367 27.4113V22.9191C58.2367 21.7392 57.8204 20.9366 56.9879 20.5113C56.1553 20.0861 55.203 19.8734 54.1308 19.8734ZM53.4301 28.3457C53.0827 28.3457 52.7892 28.2469 52.5496 28.0492C52.304 27.8576 52.1812 27.5431 52.1812 27.1059C52.1812 26.6147 52.3789 26.2523 52.7742 26.0187C53.0078 25.881 53.3941 25.7642 53.9332 25.6684L54.5082 25.5605C54.7957 25.5066 55.0218 25.4482 55.1865 25.3853C55.3512 25.3225 55.5144 25.2401 55.6761 25.1383V26.0906C55.6582 26.9471 55.4171 27.5371 54.9529 27.8605C54.4887 28.184 53.9811 28.3457 53.4301 28.3457Z" fill="white"/>
<path fill-rule="evenodd" clip-rule="evenodd" d="M69.4223 29.9V16.675H66.8258V21.3469C66.5383 20.8857 66.1639 20.5248 65.7027 20.2643C65.2415 20.0037 64.7145 19.8734 64.1215 19.8734C62.8337 19.8734 61.805 20.3526 61.0354 21.3109C60.2657 22.2693 59.8809 23.584 59.8809 25.2551C59.8809 26.7046 60.2717 27.892 61.0533 28.8174C61.835 29.7428 62.7978 30.2055 63.9418 30.2055C64.6366 30.2055 65.2176 30.0737 65.6848 29.8102C66.152 29.5466 66.5682 29.1243 66.9336 28.5434V29.9H69.4223ZM63.0613 27.2316C62.702 26.6926 62.5223 25.9708 62.5223 25.0664C62.5223 24.2279 62.6975 23.5256 63.0478 22.9596C63.3982 22.3936 63.9478 22.1105 64.6965 22.1105C65.1876 22.1105 65.6189 22.2663 65.9902 22.5777C66.5952 23.0928 66.8977 23.9493 66.8977 25.1473C66.8977 26.0038 66.709 26.7016 66.3316 27.2406C65.9543 27.7797 65.4033 28.0492 64.6785 28.0492C63.9538 28.0492 63.4147 27.7767 63.0613 27.2316Z" fill="white"/>
<path d="M76.3402 16.5762V18.6605C76.1964 18.6426 75.9554 18.6291 75.6169 18.6201C75.2785 18.6111 75.0449 18.686 74.9162 18.8447C74.7874 19.0035 74.723 19.1786 74.723 19.3703V20.1969H76.4031V22.0027H74.723V29.9H72.1714V22.0027H70.7429V20.1969H72.1445V19.568C72.1445 18.5198 72.3212 17.798 72.6746 17.4027C73.0459 16.8158 73.9414 16.5223 75.3609 16.5223C75.5226 16.5223 75.6694 16.5268 75.8011 16.5357C75.9329 16.5447 76.1126 16.5582 76.3402 16.5762Z" fill="white"/>
<path d="M84.1566 28.5164C84.1327 28.5464 84.0728 28.6362 83.977 28.7859C83.8811 28.9357 83.7673 29.0674 83.6356 29.1813C83.2342 29.5406 82.8464 29.7862 82.4721 29.918C82.0977 30.0497 81.659 30.1156 81.1559 30.1156C79.7064 30.1156 78.7301 29.5945 78.227 28.5523C77.9454 27.9773 77.8047 27.1298 77.8047 26.0098V20.107H80.4281V26.0098C80.4281 26.5668 80.494 26.9861 80.6258 27.2676C80.8594 27.7647 81.3176 28.0133 82.0004 28.0133C82.8749 28.0133 83.4738 27.6599 83.7973 26.9531C83.965 26.5698 84.0488 26.0637 84.0488 25.4348V20.107H86.6453V29.9H84.1566V28.5164Z" fill="white"/>
<path d="M89.1699 16.657H91.7305V29.9H89.1699V16.657Z" fill="white"/>
<path d="M109.169 16.657V19.002H105.207V29.9H102.422V19.002H98.4418V16.657H109.169Z" fill="white"/>
<path fill-rule="evenodd" clip-rule="evenodd" d="M119.986 25.0215C119.986 23.6079 119.573 22.3831 118.746 21.3469C117.92 20.3107 116.665 19.7926 114.982 19.7926C113.299 19.7926 112.044 20.3107 111.218 21.3469C110.391 22.3831 109.978 23.6079 109.978 25.0215C109.978 26.459 110.391 27.6883 111.218 28.7096C112.044 29.7308 113.299 30.2414 114.982 30.2414C116.665 30.2414 117.92 29.7308 118.746 28.7096C119.573 27.6883 119.986 26.459 119.986 25.0215ZM113.243 22.7529C113.648 22.2229 114.224 21.9578 114.973 21.9578C115.722 21.9578 116.297 22.2229 116.698 22.7529C117.099 23.283 117.3 24.0392 117.3 25.0215C117.3 26.0038 117.099 26.7615 116.698 27.2945C116.297 27.8276 115.722 28.0941 114.973 28.0941C114.224 28.0941 113.648 27.8276 113.243 27.2945C112.839 26.7615 112.637 26.0038 112.637 25.0215C112.637 24.0392 112.839 23.283 113.243 22.7529Z" fill="white"/>
<path d="M127.318 22.8023C127.102 22.3292 126.68 22.0926 126.051 22.0926C125.32 22.0926 124.829 22.3292 124.577 22.8023C124.44 23.0719 124.371 23.4732 124.371 24.0063V29.9H121.774V20.125H124.263V21.5535C124.58 21.0444 124.88 20.682 125.161 20.4664C125.658 20.0831 126.302 19.8914 127.093 19.8914C127.842 19.8914 128.447 20.0561 128.908 20.3855C129.279 20.691 129.561 21.0833 129.752 21.5625C130.088 20.9875 130.504 20.5652 131.001 20.2957C131.528 20.0262 132.115 19.8914 132.762 19.8914C133.193 19.8914 133.619 19.9753 134.038 20.143C134.457 20.3107 134.837 20.6042 135.179 21.0234C135.454 21.3648 135.64 21.7841 135.736 22.2813C135.796 22.6107 135.826 23.0928 135.826 23.7277L135.808 29.9H133.184V23.6648C133.184 23.2935 133.124 22.988 133.005 22.7484C132.777 22.2932 132.358 22.0656 131.747 22.0656C131.04 22.0656 130.552 22.3591 130.282 22.9461C130.145 23.2576 130.076 23.6319 130.076 24.0691V29.9H127.497V24.0691C127.497 23.4882 127.437 23.0659 127.318 22.8023Z" fill="white"/>
<path fill-rule="evenodd" clip-rule="evenodd" d="M142.034 19.8734C140.387 19.8734 139.225 20.3047 138.548 21.1672C138.123 21.7182 137.883 22.422 137.829 23.2785H140.3C140.36 22.9012 140.48 22.6017 140.659 22.3801C140.911 22.0806 141.339 21.9309 141.944 21.9309C142.483 21.9309 142.892 22.0072 143.17 22.16C143.449 22.3127 143.588 22.5897 143.588 22.991C143.588 23.3204 143.406 23.563 143.04 23.7187C142.837 23.8086 142.498 23.8835 142.025 23.9434L141.153 24.0512C140.165 24.177 139.416 24.3866 138.907 24.6801C137.979 25.2191 137.515 26.0906 137.515 27.2945C137.515 28.2229 137.804 28.9402 138.382 29.4463C138.96 29.9524 139.692 30.2055 140.578 30.2055C141.273 30.2055 141.896 30.0467 142.447 29.7293C142.908 29.4598 143.316 29.1333 143.669 28.75C143.687 28.9716 143.711 29.1693 143.741 29.343C143.771 29.5167 143.825 29.7023 143.903 29.9H146.688V29.5227C146.52 29.4448 146.394 29.346 146.31 29.2262C146.227 29.1064 146.176 28.8788 146.158 28.5434C146.146 28.1001 146.14 27.7228 146.14 27.4113V22.9191C146.14 21.7392 145.723 20.9366 144.891 20.5113C144.058 20.0861 143.106 19.8734 142.034 19.8734ZM141.333 28.3457C140.986 28.3457 140.692 28.2469 140.453 28.0492C140.207 27.8576 140.084 27.5431 140.084 27.1059C140.084 26.6147 140.282 26.2523 140.677 26.0187C140.911 25.881 141.297 25.7642 141.836 25.6684L142.411 25.5605C142.699 25.5066 142.925 25.4482 143.09 25.3853C143.254 25.3225 143.418 25.2401 143.579 25.1383V26.0906C143.561 26.9471 143.32 27.5371 142.856 27.8605C142.392 28.184 141.884 28.3457 141.333 28.3457Z" fill="white"/>
<path d="M152.896 28.0762V29.9898L151.683 30.0348C150.473 30.0767 149.647 29.8671 149.203 29.4059C148.916 29.1124 148.772 28.6602 148.772 28.0492V22.0207H147.407V20.1969H148.772V17.4656H151.306V20.1969H152.896V22.0207H151.306V27.1957C151.306 27.597 151.357 27.8471 151.459 27.9459C151.56 28.0447 151.872 28.0941 152.393 28.0941C152.471 28.0941 152.553 28.0926 152.64 28.0896C152.727 28.0867 152.812 28.0822 152.896 28.0762Z" fill="white"/>
<path fill-rule="evenodd" clip-rule="evenodd" d="M163.947 25.0215C163.947 23.6079 163.534 22.3831 162.707 21.3469C161.88 20.3107 160.626 19.7926 158.943 19.7926C157.259 19.7926 156.005 20.3107 155.178 21.3469C154.352 22.3831 153.938 23.6079 153.938 25.0215C153.938 26.459 154.352 27.6883 155.178 28.7096C156.005 29.7308 157.259 30.2414 158.943 30.2414C160.626 30.2414 161.88 29.7308 162.707 28.7096C163.534 27.6883 163.947 26.459 163.947 25.0215ZM157.204 22.7529C157.608 22.2229 158.185 21.9578 158.934 21.9578C159.682 21.9578 160.257 22.2229 160.659 22.7529C161.06 23.283 161.26 24.0392 161.26 25.0215C161.26 26.0038 161.06 26.7615 160.659 27.2945C160.257 27.8276 159.682 28.0941 158.934 28.0941C158.185 28.0941 157.608 27.8276 157.204 27.2945C156.8 26.7615 156.598 26.0038 156.598 25.0215C156.598 24.0392 156.8 23.283 157.204 22.7529Z" fill="white"/>
<path fill-rule="evenodd" clip-rule="evenodd" d="M173.255 28.7949C173.794 28.196 174.096 27.606 174.162 27.025H171.548C171.41 27.3125 171.251 27.5371 171.071 27.6988C170.742 27.9983 170.314 28.148 169.787 28.148C169.29 28.148 168.864 28.0253 168.511 27.7797C167.93 27.3844 167.621 26.6956 167.585 25.7133H174.288C174.3 24.8688 174.273 24.2219 174.207 23.7727C174.093 23.006 173.845 22.3322 173.461 21.7512C173.036 21.0923 172.497 20.6102 171.844 20.3047C171.191 19.9992 170.457 19.8465 169.643 19.8465C168.271 19.8465 167.156 20.2987 166.296 21.2031C165.437 22.1076 165.007 23.4073 165.007 25.1023C165.007 26.9112 165.483 28.2169 166.435 29.0195C167.388 29.8221 168.487 30.2234 169.733 30.2234C171.242 30.2234 172.416 29.7473 173.255 28.7949ZM171.013 22.4834C171.381 22.8338 171.587 23.3474 171.628 24.0242H167.648C167.732 23.3893 167.937 22.8862 168.264 22.5148C168.59 22.1435 169.05 21.9578 169.643 21.9578C170.188 21.9578 170.645 22.133 171.013 22.4834Z" fill="white"/>
<path d="M182.76 20.5562C183.527 21.0474 183.967 21.8919 184.081 23.0898H181.52C181.484 22.7604 181.391 22.4999 181.242 22.3082C180.96 21.9608 180.481 21.7871 179.804 21.7871C179.247 21.7871 178.85 21.874 178.614 22.0477C178.377 22.2214 178.259 22.425 178.259 22.6586C178.259 22.9521 178.385 23.1647 178.636 23.2965C178.888 23.4342 179.777 23.6708 181.305 24.0062C182.323 24.2458 183.087 24.6082 183.596 25.0934C184.099 25.5845 184.35 26.1984 184.35 26.9352C184.35 27.9055 183.989 28.6976 183.268 29.3115C182.546 29.9255 181.43 30.2324 179.921 30.2324C178.382 30.2324 177.245 29.9075 176.511 29.2576C175.778 28.6077 175.411 27.7797 175.411 26.7734H178.007C178.061 27.2286 178.178 27.5521 178.358 27.7437C178.675 28.0852 179.262 28.2559 180.119 28.2559C180.622 28.2559 181.022 28.181 181.318 28.0312C181.615 27.8815 181.763 27.6569 181.763 27.3574C181.763 27.0699 181.643 26.8513 181.403 26.7016C181.164 26.5518 180.274 26.2943 178.735 25.9289C177.627 25.6534 176.845 25.309 176.39 24.8957C175.935 24.4884 175.707 23.9014 175.707 23.1348C175.707 22.2303 176.062 21.4532 176.772 20.8033C177.482 20.1534 178.481 19.8285 179.768 19.8285C180.99 19.8285 181.987 20.0711 182.76 20.5562Z" fill="white"/>
<defs>
<linearGradient id="paint0_linear_0_137" x1="1.21472" y1="-0.806053" x2="1.21472" y2="42.0008" gradientUnits="userSpaceOnUse">
<stop stop-color="#E14221"/>
<stop offset="1" stop-color="#C02121"/>
</linearGradient>
</defs>
</svg>
