<svg width="130" height="40" viewBox="0 0 130 40" fill="none" xmlns="http://www.w3.org/2000/svg">
<path fill-rule="evenodd" clip-rule="evenodd" d="M124.23 38.0851H5.68331C3.28203 38.0851 1.33447 36.1525 1.33447 33.7697V5.90224C1.33447 3.51844 3.28203 1.58685 5.68331 1.58685H124.23C126.631 1.58685 128.578 3.51844 128.578 5.90224V33.7697C128.578 36.1525 126.631 38.0851 124.23 38.0851Z" fill="black"/>
<mask id="mask0_0_39" style="mask-type:luminance" maskUnits="userSpaceOnUse" x="0" y="1" width="130" height="38">
<path fill-rule="evenodd" clip-rule="evenodd" d="M0.859131 1.11444H129.054V38.5564H0.859131V1.11444Z" fill="white"/>
</mask>
<g mask="url(#mask0_0_39)">
<path fill-rule="evenodd" clip-rule="evenodd" d="M5.6834 2.05816C3.54837 2.05816 1.81023 3.78194 1.81023 5.90154V33.769C1.81023 35.8886 3.54837 37.6124 5.6834 37.6124H124.23C126.366 37.6124 128.103 35.8886 128.103 33.769V5.90154C128.103 3.78194 126.366 2.05816 124.23 2.05816H5.6834ZM124.23 38.5564H5.6834C3.02383 38.5564 0.858887 36.4091 0.858887 33.769V5.90154C0.858887 3.26144 3.02383 1.11414 5.6834 1.11414H124.23C126.89 1.11414 129.054 3.26144 129.054 5.90154V33.769C129.054 36.4091 126.89 38.5564 124.23 38.5564Z" fill="#A6A8AB"/>
</g>
<mask id="mask1_0_39" style="mask-type:luminance" maskUnits="userSpaceOnUse" x="0" y="1" width="130" height="38">
<path fill-rule="evenodd" clip-rule="evenodd" d="M0.859131 38.5567H129.054V1.11444H0.859131V38.5567Z" fill="white"/>
</mask>
<g mask="url(#mask1_0_39)">
<path fill-rule="evenodd" clip-rule="evenodd" d="M102.29 29.3451H104.057V17.5923H102.29V29.3451ZM118.214 21.8265L116.188 26.9217H116.127L114.024 21.8265H112.119L115.273 28.9483L113.475 32.9104H115.319L120.18 21.8265H118.214ZM108.187 28.0112C107.608 28.0112 106.801 27.7242 106.801 27.0127C106.801 26.1053 107.806 25.757 108.675 25.757C109.452 25.757 109.818 25.9242 110.29 26.1508C110.153 27.2393 109.208 28.0112 108.187 28.0112ZM108.401 21.5693C107.12 21.5693 105.795 22.1284 105.246 23.3683L106.816 24.0194C107.151 23.3683 107.776 23.1565 108.43 23.1565C109.345 23.1565 110.275 23.7007 110.29 24.6685V24.7902C109.97 24.6081 109.284 24.336 108.446 24.336C106.755 24.336 105.033 25.2593 105.033 26.983C105.033 28.5554 106.419 29.5687 107.974 29.5687C109.162 29.5687 109.818 29.0393 110.229 28.4189H110.29V29.3263H111.996V24.8199C111.996 22.733 110.428 21.5693 108.401 21.5693ZM97.4751 23.2574H94.9601V19.228H97.4751C98.7964 19.228 99.5473 20.3135 99.5473 21.2427C99.5473 22.1531 98.7964 23.2574 97.4751 23.2574ZM97.4292 17.5923H93.1931V29.3451H94.9601V24.8931H97.4292C99.3888 24.8931 101.314 23.485 101.314 21.2427C101.314 18.9994 99.3888 17.5923 97.4292 17.5923ZM74.3288 28.0132C73.1072 28.0132 72.0841 26.9979 72.0841 25.6046C72.0841 24.1955 73.1072 23.1664 74.3288 23.1664C75.5345 23.1664 76.4808 24.1955 76.4808 25.6046C76.4808 26.9979 75.5345 28.0132 74.3288 28.0132ZM76.3582 22.4846H76.2973C75.9004 22.0146 75.1376 21.59 74.1753 21.59C72.1609 21.59 70.314 23.3475 70.314 25.6046C70.314 27.8469 72.1609 29.5885 74.1753 29.5885C75.1376 29.5885 75.9004 29.164 76.2973 28.6801H76.3582V29.255C76.3582 30.7849 75.5345 31.6032 74.2062 31.6032C73.1222 31.6032 72.4511 30.8304 72.1758 30.1793L70.6341 30.8155C71.0769 31.8753 72.2526 33.1776 74.2062 33.1776C76.2824 33.1776 78.0375 31.9664 78.0375 29.0126V21.8335H76.3582V22.4846ZM79.259 29.3451H81.0301V17.5913H79.259V29.3451ZM83.6398 25.4681C83.5939 23.9234 84.8454 23.1357 85.7459 23.1357C86.4479 23.1357 87.0433 23.484 87.2417 23.9837L83.6398 25.4681ZM89.1344 24.1351C88.7984 23.2416 87.7762 21.59 85.6851 21.59C83.6089 21.59 81.8837 23.2119 81.8837 25.5898C81.8837 27.8311 83.5939 29.5885 85.8835 29.5885C87.7304 29.5885 88.7984 28.4674 89.2411 27.8162L87.868 26.9078C87.4102 27.5738 86.784 28.0132 85.8835 28.0132C84.983 28.0132 84.3418 27.6045 83.93 26.801L89.3179 24.5903L89.1344 24.1351ZM46.2064 22.8181V24.5141H50.297C50.1744 25.4681 49.8542 26.1657 49.3656 26.6496C48.7703 27.2403 47.8389 27.8924 46.2064 27.8924C43.6875 27.8924 41.719 25.8777 41.719 23.3781C41.719 20.8786 43.6875 18.8648 46.2064 18.8648C47.5647 18.8648 48.5569 19.3943 49.2898 20.076L50.4955 18.8797C49.4723 17.9099 48.1141 17.1678 46.2064 17.1678C42.7561 17.1678 39.8562 19.9553 39.8562 23.3781C39.8562 26.801 42.7561 29.5885 46.2064 29.5885C48.0682 29.5885 49.4723 28.9819 50.5712 27.8469C51.7011 26.7258 52.0521 25.1504 52.0521 23.8779C52.0521 23.484 52.0222 23.1209 51.9614 22.8181H46.2064ZM56.7031 28.0132C55.4815 28.0132 54.4285 27.0137 54.4285 25.5898C54.4285 24.15 55.4815 23.1664 56.7031 23.1664C57.9237 23.1664 58.9777 24.15 58.9777 25.5898C58.9777 27.0137 57.9237 28.0132 56.7031 28.0132ZM56.7031 21.59C54.4743 21.59 52.6574 23.2723 52.6574 25.5898C52.6574 27.8924 54.4743 29.5885 56.7031 29.5885C58.9319 29.5885 60.7478 27.8924 60.7478 25.5898C60.7478 23.2723 58.9319 21.59 56.7031 21.59ZM65.5274 28.0132C64.3058 28.0132 63.2528 27.0137 63.2528 25.5898C63.2528 24.15 64.3058 23.1664 65.5274 23.1664C66.748 23.1664 67.8011 24.15 67.8011 25.5898C67.8011 27.0137 66.748 28.0132 65.5274 28.0132ZM65.5274 21.59C63.2987 21.59 61.4817 23.2723 61.4817 25.5898C61.4817 27.8924 63.2987 29.5885 65.5274 29.5885C67.7552 29.5885 69.5721 27.8924 69.5721 25.5898C69.5721 23.2723 67.7552 21.59 65.5274 21.59Z" fill="#FEFEFE"/>
<path fill-rule="evenodd" clip-rule="evenodd" d="M10.857 8.23606C10.5817 8.52501 10.4192 8.97426 10.4192 9.55512V30.3325C10.4192 30.9134 10.5817 31.3626 10.857 31.6526L10.9268 31.7199L22.655 20.0809V19.9443V19.8068L10.9268 8.16779L10.857 8.23606Z" fill="#5AC8F2"/>
</g>
<mask id="mask2_0_39" style="mask-type:luminance" maskUnits="userSpaceOnUse" x="22" y="15" width="11" height="9">
<path fill-rule="evenodd" clip-rule="evenodd" d="M22.6553 19.8059V19.9434V20.081L26.5643 23.962L26.6541 23.9115L31.2861 21.3001C32.6084 20.554 32.6084 19.3339 31.2861 18.5878L26.6541 15.9754L26.5653 15.9259L22.6553 19.8059Z" fill="white"/>
</mask>
<g mask="url(#mask2_0_39)">
<path fill-rule="evenodd" clip-rule="evenodd" d="M22.6553 19.8059V19.9434V20.081L26.5643 23.962L26.6541 23.9115L31.2861 21.3001C32.6084 20.554 32.6084 19.3339 31.2861 18.5878L26.6541 15.9754L26.5653 15.9259L22.6553 19.8059Z" fill="url(#paint0_linear_0_39)"/>
</g>
<mask id="mask3_0_39" style="mask-type:luminance" maskUnits="userSpaceOnUse" x="10" y="19" width="17" height="14">
<path fill-rule="evenodd" clip-rule="evenodd" d="M10.8572 31.6517C11.293 32.1109 12.0129 32.1663 12.8247 31.7091L26.654 23.9115L22.6552 19.9435L10.8572 31.6517Z" fill="white"/>
</mask>
<g mask="url(#mask3_0_39)">
<path fill-rule="evenodd" clip-rule="evenodd" d="M10.8572 31.6517C11.293 32.1109 12.0129 32.1663 12.8247 31.7091L26.654 23.9115L22.6552 19.9435L10.8572 31.6517Z" fill="url(#paint1_linear_0_39)"/>
</g>
<mask id="mask4_0_39" style="mask-type:luminance" maskUnits="userSpaceOnUse" x="10" y="7" width="17" height="13">
<path fill-rule="evenodd" clip-rule="evenodd" d="M10.8572 8.23622L22.6552 19.9435L26.654 15.9754L12.8247 8.17883C12.4437 7.9641 12.0837 7.86316 11.7636 7.86316C11.4007 7.86218 11.0885 7.99279 10.8572 8.23622Z" fill="white"/>
</mask>
<g mask="url(#mask4_0_39)">
<path fill-rule="evenodd" clip-rule="evenodd" d="M10.8572 8.23622L22.6552 19.9435L26.654 15.9754L12.8247 8.17883C12.4437 7.9641 12.0837 7.86316 11.7636 7.86316C11.4007 7.86218 11.0885 7.99279 10.8572 8.23622Z" fill="url(#paint2_linear_0_39)"/>
</g>
<path fill-rule="evenodd" clip-rule="evenodd" d="M44.4076 8.90044C44.0526 8.58775 43.5829 8.38687 43.0654 8.38687C41.8996 8.38687 41.0021 9.34178 41.0021 10.5144C41.0021 11.686 41.8996 12.633 43.0654 12.633C44.0686 12.633 44.7965 12.0551 44.8444 11.1398H43.2598V10.4896H45.702C45.702 12.4331 44.6589 13.3484 43.0654 13.3484C41.4788 13.3484 40.2502 12.0798 40.2502 10.5144C40.2502 8.94102 41.4788 7.67242 43.0654 7.67242C43.8013 7.67242 44.4645 7.95345 44.9501 8.40271L44.4076 8.90044Z" fill="#FEFEFE"/>
<path fill-rule="evenodd" clip-rule="evenodd" d="M50.0315 7.73645V8.43507H47.4826V10.2014H49.7074V10.9H47.4826V12.5694H50.1123V13.268H46.7307V7.73645H50.0315Z" fill="#FEFEFE"/>
<path fill-rule="evenodd" clip-rule="evenodd" d="M54.9105 7.73645V8.44298H53.2192V13.268H52.4593V8.44298H50.7681V7.73645H54.9105Z" fill="#FEFEFE"/>
<path fill-rule="evenodd" clip-rule="evenodd" d="M57.7679 13.268H58.5198V7.73645H57.7679V13.268Z" fill="#FEFEFE"/>
<path fill-rule="evenodd" clip-rule="evenodd" d="M63.6488 7.73645V8.44298H61.9585V13.268H61.1976V8.44298H59.5063V7.73645H63.6488Z" fill="#FEFEFE"/>
<path fill-rule="evenodd" clip-rule="evenodd" d="M68.9572 12.6252C70.13 12.6252 71.0285 11.6861 71.0285 10.5145C71.0285 9.3419 70.13 8.39491 68.9572 8.39491C67.7925 8.39491 66.894 9.3419 66.894 10.5145C66.894 11.6861 67.7925 12.6252 68.9572 12.6252ZM68.9572 7.67255C70.5508 7.67255 71.7883 8.94015 71.7883 10.5145C71.7883 12.08 70.5508 13.3476 68.9572 13.3476C67.3717 13.3476 66.1411 12.08 66.1411 10.5145C66.1411 8.94015 67.3717 7.67255 68.9572 7.67255Z" fill="#FEFEFE"/>
<path fill-rule="evenodd" clip-rule="evenodd" d="M76.2391 13.2678L73.6992 9.10183V13.2678H72.9463V7.73627H73.6912L76.2072 11.8706V7.73627H76.9591V13.2678H76.2391Z" fill="#FEFEFE"/>
<defs>
<linearGradient id="paint0_linear_0_39" x1="30.4258" y1="10.379" x2="7.51868" y2="10.379" gradientUnits="userSpaceOnUse">
<stop stop-color="#FEFEFE"/>
<stop offset="1" stop-color="#F8F8F8"/>
</linearGradient>
<linearGradient id="paint1_linear_0_39" x1="10.5044" y1="13.8607" x2="-4.4048" y2="39.1521" gradientUnits="userSpaceOnUse">
<stop stop-color="#EE4547"/>
<stop offset="1" stop-color="#C7186D"/>
</linearGradient>
<linearGradient id="paint2_linear_0_39" x1="-8.57319" y1="3.03929" x2="3.59711" y2="23.6898" gradientUnits="userSpaceOnUse">
<stop stop-color="#73C169"/>
<stop offset="1" stop-color="#289E6F"/>
</linearGradient>
</defs>
</svg>
