<svg width="24" height="24" viewBox="0 0 24 24" fill="none" xmlns="http://www.w3.org/2000/svg">
<path d="M6.47526 13.1554L14.8446 21.5122C15.1528 21.8375 15.5377 22 16 22C16.4623 22 16.8471 21.8373 17.1554 21.5122L18.131 20.5493C18.4477 20.2327 18.606 19.8477 18.606 19.3942C18.606 18.9492 18.4477 18.5597 18.131 18.226L11.8923 12L18.1312 5.76109C18.4478 5.44442 18.6062 5.0595 18.6062 4.60588C18.6062 4.16093 18.4479 3.77129 18.1312 3.43776L17.1555 2.47498C16.8389 2.15831 16.4536 2 16.0001 2C15.5465 2 15.1613 2.15831 14.8448 2.47498L6.47526 10.8318C6.15846 11.1656 5.99997 11.555 5.99997 12C5.99992 12.4536 6.15846 12.8387 6.47526 13.1554Z" fill="white"/>
</svg>
