<svg width="32" height="32" viewBox="0 0 32 32" fill="none" xmlns="http://www.w3.org/2000/svg">
<path fill-rule="evenodd" clip-rule="evenodd" d="M28.3489 3.92833L29.2948 7.51742C29.3326 7.66305 29.3115 7.81868 29.2325 7.94764C29.1546 8.07654 29.0268 8.16772 28.8801 8.20216L9.25752 12.6605H28.7568C29.0636 12.6605 29.3126 12.9094 29.3125 13.2163V17.6515L29.3126 17.6623L29.3125 17.6732V26.5545C29.3125 28.0862 28.0665 29.3333 26.5337 29.3333H6.52629C4.99354 29.3333 3.7475 28.0862 3.7475 26.5545V17.6623V14.1208L2.71821 10.0517C2.60708 9.61153 2.6771 9.15803 2.91386 8.77346C3.15061 8.38884 3.52299 8.12098 3.96315 8.02094L26.3559 2.70788C27.2396 2.5078 28.131 3.05577 28.3489 3.92833ZM4.85906 18.2181V26.5545C4.85906 27.4737 5.6071 28.2218 6.52635 28.2218H26.5338C27.453 28.2218 28.2011 27.4737 28.2011 26.5545V18.2181H23.1992H17.6416H12.084H6.52635H4.85906ZM6.18174 17.1066H4.85906V14.0788C4.85968 14.0637 4.85969 14.0486 4.85906 14.0333V13.772H7.84905L6.18174 17.1066ZM7.42614 17.1066H11.7394L13.4067 13.772H9.09344L7.42614 17.1066ZM12.9827 17.1066H17.297L18.9643 13.772H14.65L12.9827 17.1066ZM18.5403 17.1066H22.8546L24.5219 13.772H20.2076L18.5403 17.1066ZM24.0979 17.1066H28.2011V13.772H25.7652L24.0979 17.1066ZM3.79533 9.7816L4.50893 12.5993L8.17983 11.7651L5.2683 8.85269L4.21549 9.10244C4.06434 9.13802 3.93986 9.22696 3.86093 9.35477C3.78309 9.48373 3.75865 9.63488 3.79533 9.7816ZM13.6162 10.5296L9.46123 11.4738L6.53873 8.55133L10.6589 7.57395L13.6162 10.5296ZM14.898 10.2383L19.0514 9.29436L16.0545 6.29403L11.9297 7.27251L14.898 10.2383ZM24.4817 8.06025L20.3316 9.00342L17.3244 5.99278L21.4405 5.01638L24.4817 8.06025ZM25.7621 7.76927L22.7106 4.71511L26.6082 3.79052C26.6482 3.78052 26.6894 3.77609 26.7294 3.77609C26.9784 3.77609 27.2084 3.94724 27.2718 4.20401L28.0732 7.24404L25.7621 7.76927Z" fill="white"/>
</svg>
