<svg width="32" height="32" viewBox="0 0 32 32" fill="none" xmlns="http://www.w3.org/2000/svg">
<path fill-rule="evenodd" clip-rule="evenodd" d="M17.8861 7.35419H26.9896C28.2819 7.35419 29.3333 8.40559 29.3333 9.69794V25.4271C29.3333 26.7194 28.2819 27.7708 26.9896 27.7708H24.6458V28.5521C24.6458 28.9835 24.296 29.3333 23.8646 29.3333C23.4331 29.3333 23.0833 28.9835 23.0833 28.5521V27.7708H8.91665V28.5521C8.91665 28.9835 8.56686 29.3333 8.1354 29.3333C7.70394 29.3333 7.35415 28.9835 7.35415 28.5521V27.7708H5.0104C3.71806 27.7708 2.66666 26.7194 2.66666 25.4271V9.69794C2.66666 8.40559 3.71806 7.35419 5.0104 7.35419H14.1139L10.7601 4.00034C10.455 3.69523 10.455 3.2006 10.7601 2.8955C11.0652 2.59039 11.5599 2.59039 11.8649 2.8955L16 7.0306L20.135 2.89555C20.4401 2.59044 20.9348 2.59044 21.2399 2.89555C21.545 3.20065 21.545 3.69529 21.2399 4.00039L17.8861 7.35419ZM26.9895 26.2083C27.4203 26.2083 27.7708 25.8579 27.7708 25.4271V9.69794C27.7708 9.26716 27.4203 8.91669 26.9895 8.91669H5.0104C4.57962 8.91669 4.22915 9.26716 4.22915 9.69794V25.4271C4.22915 25.8579 4.57962 26.2083 5.0104 26.2083H26.9895ZM6.5729 10.4792H22.3021C22.7335 10.4792 23.0833 10.829 23.0833 11.2604V23.8646C23.0833 24.296 22.7335 24.6458 22.3021 24.6458H6.5729C6.14144 24.6458 5.79165 24.296 5.79165 23.8646V11.2604C5.79165 10.829 6.14144 10.4792 6.5729 10.4792ZM7.35415 23.0833H21.5208V12.0417H7.35415V23.0833ZM25.4271 13.6042C25.8585 13.6042 26.2083 13.2544 26.2083 12.8229C26.2083 12.3915 25.8585 12.0417 25.4271 12.0417C24.9956 12.0417 24.6458 12.3915 24.6458 12.8229C24.6458 13.2544 24.9956 13.6042 25.4271 13.6042ZM26.2083 15.9479C26.2083 16.3794 25.8585 16.7292 25.4271 16.7292C24.9956 16.7292 24.6458 16.3794 24.6458 15.9479C24.6458 15.5165 24.9956 15.1667 25.4271 15.1667C25.8585 15.1667 26.2083 15.5165 26.2083 15.9479ZM24.6458 19.0729C24.6458 18.6415 24.9956 18.2917 25.4271 18.2917C25.8585 18.2917 26.2083 18.6415 26.2083 19.0729V22.3021C26.2083 22.7335 25.8585 23.0833 25.4271 23.0833C24.9956 23.0833 24.6458 22.7335 24.6458 22.3021V19.0729Z" fill="white"/>
</svg>
